<?xml version="1.0" standalone="no"?>
<!DOCTYPE svg PUBLIC "-//W3C//DTD SVG 20010904//EN"
 "http://www.w3.org/TR/2001/REC-SVG-20010904/DTD/svg10.dtd">
<svg version="1.0" xmlns="http://www.w3.org/2000/svg"
 width="224.000000pt" height="224.000000pt" viewBox="0 0 224.000000 224.000000"
 preserveAspectRatio="xMidYMid meet">

<g transform="translate(0.000000,224.000000) scale(0.100000,-0.100000)"
fill="#e50914" stroke="none">
<path d="M215 1988 c2 -7 34 -155 70 -328 36 -173 68 -323 71 -332 5 -16 -3
-18 -70 -18 l-76 0 0 -190 0 -190 114 0 114 0 15 -67 c9 -38 42 -193 74 -346
l58 -277 161 0 c121 0 163 3 166 13 3 6 36 162 74 344 l69 333 65 0 65 0 68
-328 c38 -180 71 -335 73 -344 5 -16 22 -18 168 -18 l162 0 58 278 c32 152 65
307 73 345 l15 67 114 0 114 0 0 190 0 190 -74 0 -74 0 39 183 c21 100 53 255
72 345 l35 162 -181 -2 -181 -3 -65 -342 -66 -343 -61 0 -62 0 -27 148 c-15
81 -44 235 -65 342 l-37 195 -163 0 -164 0 -42 -220 c-22 -121 -51 -275 -64
-342 l-23 -123 -61 0 -61 0 -66 343 -65 342 -182 3 c-143 2 -181 0 -177 -10z"/>
</g>
</svg>
